<?xml version="1.0" encoding="UTF-8"?>
<svg width="1200" height="630" viewBox="0 0 1200 630" fill="none" xmlns="http://www.w3.org/2000/svg">
  <defs>
    <linearGradient id="bg" x1="0" y1="0" x2="0" y2="630" gradientUnits="userSpaceOnUse">
      <stop offset="0%" stop-color="#121935"/>
      <stop offset="100%" stop-color="#0B1020"/>
    </linearGradient>
    <filter id="blur">
      <feGaussianBlur stdDeviation="60"/>
    </filter>
    <linearGradient id="nameGrad" x1="0" y1="0" x2="1" y2="0">
      <stop offset="0%" stop-color="#EAF2FF"/>
      <stop offset="100%" stop-color="#7DD3FC"/>
    </linearGradient>
  </defs>

  <!-- Background -->
  <rect width="1200" height="630" fill="url(#bg)"/>

  <!-- Grid -->
  <g><line x1="0" y1="0" x2="0" y2="630" stroke="white" stroke-opacity="0.08" stroke-width="1"/>
      <line x1="40" y1="0" x2="40" y2="630" stroke="white" stroke-opacity="0.08" stroke-width="1"/>
      <line x1="80" y1="0" x2="80" y2="630" stroke="white" stroke-opacity="0.08" stroke-width="1"/>
      <line x1="120" y1="0" x2="120" y2="630" stroke="white" stroke-opacity="0.08" stroke-width="1"/>
      <line x1="160" y1="0" x2="160" y2="630" stroke="white" stroke-opacity="0.08" stroke-width="1"/>
      <line x1="200" y1="0" x2="200" y2="630" stroke="white" stroke-opacity="0.08" stroke-width="1"/>
      <line x1="240" y1="0" x2="240" y2="630" stroke="white" stroke-opacity="0.08" stroke-width="1"/>
      <line x1="280" y1="0" x2="280" y2="630" stroke="white" stroke-opacity="0.08" stroke-width="1"/>
      <line x1="320" y1="0" x2="320" y2="630" stroke="white" stroke-opacity="0.08" stroke-width="1"/>
      <line x1="360" y1="0" x2="360" y2="630" stroke="white" stroke-opacity="0.08" stroke-width="1"/>
      <line x1="400" y1="0" x2="400" y2="630" stroke="white" stroke-opacity="0.08" stroke-width="1"/>
      <line x1="440" y1="0" x2="440" y2="630" stroke="white" stroke-opacity="0.08" stroke-width="1"/>
      <line x1="480" y1="0" x2="480" y2="630" stroke="white" stroke-opacity="0.08" stroke-width="1"/>
      <line x1="520" y1="0" x2="520" y2="630" stroke="white" stroke-opacity="0.08" stroke-width="1"/>
      <line x1="560" y1="0" x2="560" y2="630" stroke="white" stroke-opacity="0.08" stroke-width="1"/>
      <line x1="600" y1="0" x2="600" y2="630" stroke="white" stroke-opacity="0.08" stroke-width="1"/>
      <line x1="640" y1="0" x2="640" y2="630" stroke="white" stroke-opacity="0.08" stroke-width="1"/>
      <line x1="680" y1="0" x2="680" y2="630" stroke="white" stroke-opacity="0.08" stroke-width="1"/>
      <line x1="720" y1="0" x2="720" y2="630" stroke="white" stroke-opacity="0.08" stroke-width="1"/>
      <line x1="760" y1="0" x2="760" y2="630" stroke="white" stroke-opacity="0.08" stroke-width="1"/>
      <line x1="800" y1="0" x2="800" y2="630" stroke="white" stroke-opacity="0.08" stroke-width="1"/>
      <line x1="840" y1="0" x2="840" y2="630" stroke="white" stroke-opacity="0.08" stroke-width="1"/>
      <line x1="880" y1="0" x2="880" y2="630" stroke="white" stroke-opacity="0.08" stroke-width="1"/>
      <line x1="920" y1="0" x2="920" y2="630" stroke="white" stroke-opacity="0.08" stroke-width="1"/>
      <line x1="960" y1="0" x2="960" y2="630" stroke="white" stroke-opacity="0.08" stroke-width="1"/>
      <line x1="1000" y1="0" x2="1000" y2="630" stroke="white" stroke-opacity="0.08" stroke-width="1"/>
      <line x1="1040" y1="0" x2="1040" y2="630" stroke="white" stroke-opacity="0.08" stroke-width="1"/>
      <line x1="1080" y1="0" x2="1080" y2="630" stroke="white" stroke-opacity="0.08" stroke-width="1"/>
      <line x1="1120" y1="0" x2="1120" y2="630" stroke="white" stroke-opacity="0.08" stroke-width="1"/>
      <line x1="1160" y1="0" x2="1160" y2="630" stroke="white" stroke-opacity="0.08" stroke-width="1"/>
      <line x1="1200" y1="0" x2="1200" y2="630" stroke="white" stroke-opacity="0.08" stroke-width="1"/>
      <line x1="0" y1="0" x2="1200" y2="0" stroke="white" stroke-opacity="0.08" stroke-width="1"/>
      <line x1="0" y1="40" x2="1200" y2="40" stroke="white" stroke-opacity="0.08" stroke-width="1"/>
      <line x1="0" y1="80" x2="1200" y2="80" stroke="white" stroke-opacity="0.08" stroke-width="1"/>
      <line x1="0" y1="120" x2="1200" y2="120" stroke="white" stroke-opacity="0.08" stroke-width="1"/>
      <line x1="0" y1="160" x2="1200" y2="160" stroke="white" stroke-opacity="0.08" stroke-width="1"/>
      <line x1="0" y1="200" x2="1200" y2="200" stroke="white" stroke-opacity="0.08" stroke-width="1"/>
      <line x1="0" y1="240" x2="1200" y2="240" stroke="white" stroke-opacity="0.08" stroke-width="1"/>
      <line x1="0" y1="280" x2="1200" y2="280" stroke="white" stroke-opacity="0.08" stroke-width="1"/>
      <line x1="0" y1="320" x2="1200" y2="320" stroke="white" stroke-opacity="0.08" stroke-width="1"/>
      <line x1="0" y1="360" x2="1200" y2="360" stroke="white" stroke-opacity="0.08" stroke-width="1"/>
      <line x1="0" y1="400" x2="1200" y2="400" stroke="white" stroke-opacity="0.08" stroke-width="1"/>
      <line x1="0" y1="440" x2="1200" y2="440" stroke="white" stroke-opacity="0.08" stroke-width="1"/>
      <line x1="0" y1="480" x2="1200" y2="480" stroke="white" stroke-opacity="0.08" stroke-width="1"/>
      <line x1="0" y1="520" x2="1200" y2="520" stroke="white" stroke-opacity="0.08" stroke-width="1"/>
      <line x1="0" y1="560" x2="1200" y2="560" stroke="white" stroke-opacity="0.08" stroke-width="1"/>
      <line x1="0" y1="600" x2="1200" y2="600" stroke="white" stroke-opacity="0.08" stroke-width="1"/></g>

  <!-- Accent blobs -->
  
  <g opacity="0.25" filter="url(#blur)">
    <circle cx="983.9999999999999" cy="138.6" r="160" fill="#7DD3FC"/>
    <circle cx="840.0" cy="472.5" r="220" fill="#4F46E5"/>
    <circle cx="240.0" cy="189.0" r="140" fill="#22D3EE"/>
  </g>


  <!-- Content -->
  <g>
    <!-- Vertical accent bar -->
    <rect x="80" y="138.6" width="6" height="220" rx="3" fill="#7DD3FC" opacity="0.9"/>

    <!-- Name -->
    <text x="100" y="226.79999999999998" fill="url(#nameGrad)" font-family="Inter, ui-sans-serif, system-ui, -apple-system, Segoe UI, Roboto" font-size="72" font-weight="800" letter-spacing="0.5">
      Moe Dewedar
    </text>

    <!-- Title -->
    <text x="100" y="288.79999999999995" fill="#EAF2FF" font-family="Inter, ui-sans-serif, system-ui, -apple-system, Segoe UI, Roboto" font-size="34" font-weight="600" opacity="0.95">
      Machine Learning Engineer
    </text>

    <!-- Tagline -->
    <text x="100" y="336.79999999999995" fill="#A9B1C6" font-family="Inter, ui-sans-serif, system-ui, -apple-system, Segoe UI, Roboto" font-size="26" font-weight="500">
      LLMs • Computer Vision • AWS
    </text>

    <!-- URL pill -->
    <g transform="translate(100, 540)">
      <rect width="540" height="56" rx="14" fill="#0F172A" opacity="0.85" stroke="#7DD3FC" stroke-opacity="0.35"/>
      <text x="22" y="36" fill="#EAF2FF" font-family="Inter, ui-sans-serif, system-ui, -apple-system, Segoe UI, Roboto" font-size="22" font-weight="600">mohaned-dewedar.github.io</text>
    </g>
  </g>
</svg>
